# xmcd
#
# Track frame offsets: 
#        150
#        23777
#        43221
#        63036
#        82832
#        112180
#        130730
#        154632
#        165342
#        190923
#        207490
#
# Disc length: 2956 seconds
#
# Revision: 0
# Processed by: cddbd v1.5.2PL0 Copyright (c) Steve Scherf et al.
# Submitted via: ExactAudioCopyFreeDBPlugin 1.0
#
DISCID=890b8a0b
DTITLE=Chris Rea - Dancing With Strangers
DYEAR=2019
DGENRE=Blues
TTITLE0=Joys Of Christmas
TTITLE1=I Can't Dance To That
TTITLE2=Windy Town
TTITLE3=Gonna Buy A Hat
TTITLE4=Curse Of The Traveller
TTITLE5=Let's Dance
TTITLE6=Que Sera
TTITLE7=Josie's Tune
TTITLE8=Loving You Again
TTITLE9=That Girl Of Mine
TTITLE10=September Blue
EXTD=
EXTT0=
EXTT1=
EXTT2=
EXTT3=
EXTT4=
EXTT5=
EXTT6=
EXTT7=
EXTT8=
EXTT9=
EXTT10=
PLAYORDER=
